<svg width="64" height="64" viewBox="0 0 64 64" fill="none" xmlns="http://www.w3.org/2000/svg">
<g clip-path="url(#clip0_10_5)">
<path d="M32 0C14.327 0 0 14.327 0 32C0 49.673 14.327 64 32 64C49.673 64 64 49.673 64 32C64 14.327 49.673 0 32 0ZM32 58C17.641 58 6 46.359 6 32C6 17.641 17.641 6 32 6C46.359 6 58 17.641 58 32C58 46.359 46.359 58 32 58ZM16.5 37.5H32H47.5L32 48L16.5 37.5ZM28 18.5H36V34H28V18.5Z" fill="white"/>
</g>
<defs>
<clipPath id="clip0_10_5">
<rect width="64" height="64" fill="white"/>
</clipPath>
</defs>
</svg>
