<svg width="175" height="49" viewBox="0 0 175 49" fill="none" xmlns="http://www.w3.org/2000/svg">
<path d="M11.184 39.176C9.328 39.176 7.552 38.856 5.856 38.216C4.192 37.576 2.832 36.6 1.776 35.288C0.72 33.976 0.192 32.344 0.192 30.392C0.192 28.664 0.576 27.32 1.344 26.36C2.112 25.368 3.072 24.68 4.224 24.296C5.376 23.912 6.496 23.72 7.584 23.72C6.56 24.808 5.776 25.928 5.232 27.08C4.72 28.232 4.464 29.336 4.464 30.392C4.464 31.48 4.736 32.504 5.28 33.464C5.856 34.392 6.704 35.144 7.824 35.72C8.944 36.328 10.336 36.632 12 36.632C13.44 36.632 14.832 36.392 16.176 35.912C17.552 35.432 18.672 34.712 19.536 33.752C20.432 32.792 20.88 31.592 20.88 30.152C20.88 28.84 20.496 27.72 19.728 26.792C18.992 25.832 18.032 24.984 16.848 24.248C15.664 23.48 14.416 22.76 13.104 22.088C11.792 21.384 10.544 20.632 9.36 19.832C8.176 19.032 7.2 18.104 6.432 17.048C5.696 15.992 5.328 14.728 5.328 13.256C5.328 11.944 5.648 10.552 6.288 9.08C6.96 7.576 7.904 6.168 9.12 4.856C10.336 3.544 11.808 2.488 13.536 1.688C15.264 0.855999 17.184 0.439999 19.296 0.439999C21.504 0.439999 23.056 0.903998 23.952 1.832C24.848 2.76 25.296 3.976 25.296 5.48C25.296 6.664 25.088 7.928 24.672 9.272C24.256 10.616 23.744 11.896 23.136 13.112C22.56 14.328 22 15.368 21.456 16.232C20.752 16.072 20.224 15.8 19.872 15.416C19.52 15 19.344 14.456 19.344 13.784C19.344 13.112 19.472 12.36 19.728 11.528C20.016 10.696 20.336 9.832 20.688 8.936C21.072 8.04 21.392 7.176 21.648 6.344C21.936 5.48 22.08 4.728 22.08 4.088C22.08 3.512 21.904 3.064 21.552 2.744C21.232 2.424 20.56 2.264 19.536 2.264C18 2.264 16.592 2.6 15.312 3.272C14.032 3.944 12.912 4.792 11.952 5.816C11.024 6.84 10.304 7.928 9.792 9.08C9.28 10.2 9.024 11.224 9.024 12.152C9.024 13.304 9.392 14.296 10.128 15.128C10.864 15.928 11.808 16.664 12.96 17.336C14.144 18.008 15.376 18.68 16.656 19.352C17.968 20.024 19.2 20.776 20.352 21.608C21.536 22.44 22.496 23.432 23.232 24.584C23.968 25.736 24.336 27.144 24.336 28.808C24.336 30.472 23.952 31.944 23.184 33.224C22.448 34.504 21.44 35.576 20.16 36.44C18.88 37.336 17.456 38.008 15.888 38.456C14.352 38.936 12.784 39.176 11.184 39.176ZM30.4024 36.536C28.9624 36.536 27.9704 36.056 27.4264 35.096C26.9144 34.168 26.6584 33.144 26.6584 32.024C26.6584 31 26.8184 29.96 27.1384 28.904C27.4584 27.816 27.8904 26.808 28.4344 25.88C29.0104 24.952 29.6344 24.216 30.3064 23.672C31.0104 23.096 31.7144 22.808 32.4184 22.808C32.6424 22.808 32.8984 22.856 33.1864 22.952C33.5064 23.016 33.7304 23.128 33.8584 23.288C33.4744 23.768 33.0744 24.36 32.6584 25.064C32.2744 25.768 31.9064 26.52 31.5544 27.32C31.2344 28.088 30.9784 28.872 30.7864 29.672C30.5944 30.472 30.4984 31.208 30.4984 31.88C30.4984 32.52 30.6104 33.048 30.8344 33.464C31.0904 33.88 31.5224 34.088 32.1304 34.088C32.7384 34.088 33.4584 33.752 34.2904 33.08C35.1544 32.376 35.9704 31.576 36.7384 30.68C35.7144 29.752 34.9784 28.744 34.5304 27.656C34.0824 26.536 33.8584 25.192 33.8584 23.624C33.8584 22.952 34.0184 22.184 34.3384 21.32C34.6904 20.456 35.2344 19.704 35.9704 19.064C36.7384 18.424 37.7624 18.104 39.0424 18.104C40.4184 18.104 41.3784 18.488 41.9224 19.256C42.4984 20.024 42.7864 20.936 42.7864 21.992C42.7864 23.176 42.4664 24.504 41.8264 25.976C41.2184 27.448 40.4824 28.84 39.6184 30.152C40.0024 30.344 40.4504 30.44 40.9624 30.44C41.4424 30.44 42.0184 30.328 42.6904 30.104C43.3624 29.88 44.0184 29.512 44.6584 29C45.2984 28.456 45.8104 27.736 46.1944 26.84L47.0584 27.464C46.3544 29.096 45.4104 30.296 44.2264 31.064C43.0744 31.8 41.9384 32.168 40.8184 32.168C40.4024 32.168 39.9864 32.136 39.5704 32.072C39.1544 31.976 38.7704 31.864 38.4184 31.736C37.3304 33.016 36.0824 34.136 34.6744 35.096C33.2664 36.056 31.8424 36.536 30.4024 36.536ZM37.9864 29.144C38.7544 28.024 39.4104 26.824 39.9544 25.544C40.4984 24.264 40.7704 23.08 40.7704 21.992C40.7704 21.256 40.6584 20.728 40.4344 20.408C40.2104 20.056 39.8744 19.88 39.4264 19.88C38.8184 19.88 38.1944 20.312 37.5544 21.176C36.9144 22.04 36.5944 23.128 36.5944 24.44C36.5944 25.112 36.7064 25.928 36.9304 26.888C37.1864 27.848 37.5384 28.6 37.9864 29.144ZM61.2698 35.96C60.0218 35.96 59.0618 35.64 58.3898 35C57.7498 34.392 57.4297 33.608 57.4297 32.648C57.4297 32.008 57.5417 31.336 57.7657 30.632C57.9898 29.896 58.2138 29.16 58.4378 28.424C58.6618 27.688 58.7738 26.984 58.7738 26.312C58.7738 25.608 58.5978 25.128 58.2458 24.872C57.9258 24.584 57.5417 24.44 57.0938 24.44C56.1338 24.44 55.1418 24.84 54.1178 25.64C53.1258 26.408 52.1498 27.384 51.1898 28.568C50.2618 29.752 49.3818 30.984 48.5498 32.264C47.7178 33.544 46.9978 34.696 46.3898 35.72C45.7818 35.72 45.2058 35.608 44.6617 35.384C44.1177 35.192 43.6537 34.84 43.2697 34.328C43.3017 34.168 43.4937 33.688 43.8457 32.888C44.1657 32.056 44.5337 31.08 44.9497 29.96C45.3658 28.808 45.7338 27.608 46.0538 26.36C46.3738 25.112 46.5338 23.976 46.5338 22.952C46.7578 22.696 47.0938 22.44 47.5418 22.184C48.0218 21.928 48.5178 21.8 49.0298 21.8C50.1498 21.8 50.7098 22.28 50.7098 23.24C50.7098 23.624 50.6298 24.2 50.4698 24.968C50.3418 25.704 50.1498 26.552 49.8938 27.512C50.7258 26.392 51.6378 25.336 52.6298 24.344C53.6218 23.352 54.6458 22.552 55.7018 21.944C56.7898 21.304 57.8778 20.984 58.9658 20.984C60.3418 20.984 61.3498 21.448 61.9898 22.376C62.6618 23.304 62.9978 24.328 62.9978 25.448C62.9978 26.408 62.8378 27.304 62.5178 28.136C62.1978 28.968 61.8778 29.752 61.5578 30.488C61.2698 31.224 61.1258 31.944 61.1258 32.648C61.1258 33.16 61.2378 33.528 61.4618 33.752C61.7178 33.944 61.9898 34.04 62.2778 34.04C63.0458 34.04 63.8458 33.672 64.6778 32.936C65.5098 32.2 66.2938 31.272 67.0298 30.152C67.7978 29 68.4698 27.848 69.0458 26.696L69.8618 27.368C69.1898 28.936 68.4218 30.376 67.5578 31.688C66.7258 32.968 65.7818 34.008 64.7258 34.808C63.7018 35.576 62.5498 35.96 61.2698 35.96ZM70.1813 48.44C69.3813 48.44 68.6293 48.2 67.9253 47.72C67.2532 47.24 66.9172 46.456 66.9172 45.368C66.9172 44.344 67.2052 43.416 67.7812 42.584C68.3893 41.784 69.1733 41.032 70.1333 40.328C71.1253 39.656 72.1813 39.032 73.3013 38.456C74.4213 37.88 75.5093 37.336 76.5653 36.824C76.9173 35.96 77.2533 35.032 77.5733 34.04C77.8933 33.048 78.1973 31.976 78.4853 30.824C77.3653 32.232 76.1813 33.4 74.9333 34.328C73.7173 35.256 72.4693 35.72 71.1893 35.72C69.9093 35.72 68.8853 35.272 68.1173 34.376C67.3812 33.48 67.0132 32.296 67.0132 30.824C67.0132 29.128 67.4292 27.544 68.2613 26.072C69.1253 24.568 70.2293 23.24 71.5733 22.088C72.9173 20.904 74.3573 19.992 75.8933 19.352C77.4293 18.68 78.9013 18.344 80.3093 18.344C81.3333 18.344 82.1013 18.536 82.6133 18.92C83.1253 19.272 83.3813 19.688 83.3813 20.168C83.3813 20.552 83.2693 20.856 83.0453 21.08C82.8213 21.304 82.6773 21.432 82.6133 21.464C82.2933 21.112 81.9573 20.888 81.6053 20.792C81.2853 20.664 80.9013 20.6 80.4532 20.6C79.2053 20.6 78.0053 20.952 76.8533 21.656C75.7013 22.36 74.6773 23.272 73.7812 24.392C72.9173 25.48 72.2293 26.616 71.7173 27.8C71.2053 28.984 70.9492 30.056 70.9492 31.016C70.9492 31.656 71.0933 32.152 71.3813 32.504C71.6693 32.824 72.0213 32.984 72.4373 32.984C73.3333 32.984 74.4213 32.408 75.7013 31.256C76.9813 30.072 78.2133 28.648 79.3973 26.984C79.4613 26.728 79.5093 26.504 79.5413 26.312C79.6053 26.088 79.6533 25.88 79.6853 25.688C80.0053 24.408 80.3893 23.464 80.8373 22.856C81.2853 22.248 81.9093 21.944 82.7093 21.944C82.8693 21.944 83.0613 21.96 83.2853 21.992C83.5413 22.024 83.8133 22.072 84.1013 22.136C84.1013 22.712 83.9413 23.656 83.6213 24.968C83.3013 26.28 82.8693 27.816 82.3253 29.576C81.7813 31.304 81.1733 33.08 80.5013 34.904C81.4933 34.488 82.5013 33.912 83.5253 33.176C84.5493 32.408 85.4933 31.496 86.3573 30.44C87.2213 29.352 87.8773 28.152 88.3253 26.84L89.1893 27.704C88.6773 29.176 87.8773 30.52 86.7893 31.736C85.7333 32.952 84.5813 34.008 83.3333 34.904C82.0853 35.768 80.9333 36.44 79.8773 36.92C79.0133 39.032 78.0693 40.952 77.0453 42.68C76.0533 44.44 74.9813 45.832 73.8293 46.856C72.7093 47.912 71.4933 48.44 70.1813 48.44ZM69.9893 46.232C70.5653 46.232 71.3493 45.688 72.3413 44.6C73.3653 43.512 74.4693 41.672 75.6533 39.08C74.4693 39.656 73.3813 40.248 72.3893 40.856C71.3973 41.464 70.5973 42.104 69.9893 42.776C69.3813 43.448 69.0773 44.152 69.0773 44.888C69.0773 45.304 69.1573 45.624 69.3173 45.848C69.5093 46.104 69.7333 46.232 69.9893 46.232Z" fill="#3E3737"/>
<path d="M95.0606 39.176C93.1086 39.176 91.6366 38.856 90.6446 38.216C89.6526 37.576 89.1406 36.52 89.1086 35.048C89.1086 34.728 89.2846 34.568 89.6366 34.568C89.9246 34.568 90.3566 34.648 90.9326 34.808C91.5406 34.936 92.6766 35 94.3406 35C97.1566 35 99.7486 34.712 102.117 34.136C104.485 33.528 106.533 32.728 108.261 31.736C110.021 30.712 111.381 29.576 112.341 28.328C113.301 27.048 113.781 25.72 113.781 24.344C113.781 23.096 113.397 22.104 112.629 21.368C111.893 20.6 110.901 20.024 109.653 19.64C108.437 19.224 107.093 18.952 105.621 18.824C104.181 18.696 102.757 18.632 101.349 18.632C100.741 18.632 100.133 18.648 99.5246 18.68C98.9166 18.68 98.3406 18.68 97.7966 18.68C97.0926 21.112 96.4046 23.624 95.7326 26.216C95.0606 28.808 94.3566 31.352 93.6206 33.848C92.6606 33.848 91.8286 33.592 91.1246 33.08C90.4206 32.568 90.0686 31.944 90.0686 31.208C90.0686 30.92 90.1166 30.552 90.2126 30.104C90.3406 29.624 90.5166 29.064 90.7406 28.424C90.9326 27.816 91.2526 26.808 91.7006 25.4C92.1806 23.992 92.7406 22.328 93.3806 20.408C94.0206 18.488 94.7246 16.472 95.4926 14.36C96.2926 12.216 97.1086 10.12 97.9406 8.072C98.8046 6.024 99.6526 4.184 100.485 2.552C99.2046 2.84 98.1486 3.176 97.3166 3.56C96.4846 3.944 95.8286 4.28 95.3486 4.568C94.8686 4.856 94.5006 5 94.2446 5C94.0526 5 93.7966 4.888 93.4766 4.664C93.1886 4.44 92.9166 4.184 92.6606 3.896C92.4366 3.608 92.3246 3.352 92.3246 3.128C94.0526 2.424 95.8446 1.8 97.7006 1.256C99.5566 0.711999 101.797 0.439999 104.421 0.439999C105.573 0.439999 106.837 0.535998 108.213 0.727998C109.589 0.887998 110.901 1.24 112.149 1.784C113.397 2.296 114.421 3.08 115.221 4.136C116.053 5.16 116.469 6.536 116.469 8.264C116.469 9.64 116.165 10.84 115.557 11.864C114.981 12.856 114.197 13.72 113.205 14.456C112.213 15.16 111.125 15.752 109.941 16.232C108.757 16.68 107.589 17.048 106.437 17.336C108.421 17.592 110.069 18.008 111.381 18.584C112.725 19.128 113.781 19.768 114.549 20.504C115.349 21.24 115.909 22.008 116.229 22.808C116.581 23.576 116.757 24.328 116.757 25.064C116.757 26.952 116.261 28.648 115.269 30.152C114.277 31.656 112.965 32.968 111.333 34.088C109.733 35.208 107.957 36.136 106.005 36.872C104.085 37.64 102.165 38.216 100.245 38.6C98.3246 38.984 96.5966 39.176 95.0606 39.176ZM98.2766 16.856C100.069 16.792 101.829 16.584 103.557 16.232C105.285 15.88 106.837 15.368 108.213 14.696C109.621 13.992 110.741 13.096 111.573 12.008C112.405 10.888 112.821 9.512 112.821 7.88C112.821 6.344 112.405 5.16 111.573 4.328C110.741 3.496 109.653 2.92 108.309 2.6C106.965 2.28 105.525 2.12 103.989 2.12C103.957 2.12 103.925 2.12 103.893 2.12C103.861 2.12 103.829 2.12 103.797 2.12C102.709 4.264 101.717 6.6 100.821 9.128C99.9246 11.624 99.0766 14.2 98.2766 16.856ZM122.199 36.44C120.791 36.44 119.735 36.024 119.031 35.192C118.327 34.36 117.975 33.352 117.975 32.168C117.975 31.432 118.103 30.504 118.359 29.384C118.615 28.264 118.967 27.096 119.415 25.88C119.895 24.632 120.439 23.464 121.047 22.376C121.655 21.288 122.311 20.408 123.015 19.736C123.719 19.032 124.423 18.68 125.127 18.68C125.511 18.68 125.847 18.808 126.135 19.064C126.423 19.288 126.567 19.624 126.567 20.072C126.567 20.488 126.311 21.112 125.799 21.944C125.319 22.776 124.743 23.736 124.071 24.824C123.431 25.912 122.855 27.048 122.343 28.232C121.863 29.384 121.623 30.488 121.623 31.544C121.623 32.568 121.799 33.256 122.151 33.608C122.535 33.928 123.079 34.088 123.783 34.088C124.871 34.088 126.055 33.544 127.335 32.456C128.615 31.368 129.943 29.464 131.319 26.744L132.039 27.512C130.919 30.328 129.495 32.52 127.767 34.088C126.039 35.656 124.183 36.44 122.199 36.44ZM127.863 14.792C127.255 14.792 126.695 14.648 126.183 14.36C125.703 14.04 125.463 13.56 125.463 12.92C125.463 12.152 125.879 11.496 126.711 10.952C127.543 10.408 128.407 10.136 129.303 10.136C129.879 10.136 130.359 10.264 130.743 10.52C131.159 10.776 131.367 11.24 131.367 11.912C131.367 12.584 130.999 13.24 130.263 13.88C129.527 14.488 128.727 14.792 127.863 14.792ZM138.958 36.248C137.774 36.248 136.814 35.928 136.078 35.288C135.342 34.68 134.974 33.848 134.974 32.792C134.974 31.896 135.198 30.936 135.646 29.912C136.094 28.888 136.542 27.88 136.99 26.888C137.47 25.896 137.71 25.016 137.71 24.248C137.71 23.512 137.47 22.904 136.99 22.424C136.51 21.912 135.95 21.496 135.31 21.176C134.606 22.936 133.806 24.648 132.91 26.312C132.046 27.944 131.342 29.224 130.798 30.152L130.078 28.76C130.526 27.928 131.118 26.744 131.854 25.208C132.59 23.672 133.294 21.96 133.966 20.072C133.646 19.752 133.486 19.32 133.486 18.776C133.486 17.944 133.742 17.16 134.254 16.424C134.766 15.688 135.262 15.32 135.742 15.32C136.126 15.32 136.398 15.544 136.558 15.992C136.75 16.408 136.846 16.696 136.846 16.856C136.846 17.016 136.766 17.304 136.606 17.72C136.478 18.136 136.382 18.44 136.318 18.632C136.35 18.984 136.622 19.336 137.134 19.688C137.678 20.008 138.286 20.392 138.958 20.84C139.63 21.288 140.222 21.848 140.734 22.52C141.246 23.192 141.502 24.04 141.502 25.064C141.502 25.992 141.294 26.936 140.878 27.896C140.462 28.856 140.046 29.752 139.63 30.584C139.214 31.416 139.006 32.136 139.006 32.744C139.006 33.192 139.118 33.496 139.342 33.656C139.598 33.784 139.886 33.848 140.206 33.848C140.974 33.848 141.774 33.624 142.606 33.176C143.438 32.696 144.254 32.088 145.054 31.352C145.854 30.616 146.558 29.848 147.166 29.048C147.774 28.216 148.238 27.464 148.558 26.792L149.71 27.656C149.102 29.032 148.222 30.392 147.07 31.736C145.918 33.048 144.638 34.136 143.23 35C141.822 35.832 140.398 36.248 138.958 36.248ZM150.828 36.44C150.22 36.44 149.596 36.28 148.956 35.96C148.348 35.672 147.836 35.208 147.42 34.568C146.972 33.928 146.748 33.112 146.748 32.12C146.748 31.064 147.004 29.88 147.516 28.568C148.028 27.256 148.716 25.944 149.58 24.632C150.476 23.32 151.5 22.12 152.652 21.032C153.836 19.944 155.084 19.064 156.396 18.392C157.708 17.72 159.036 17.384 160.38 17.384C161.116 17.384 161.692 17.512 162.108 17.768C162.524 17.992 162.732 18.376 162.732 18.92C162.732 19.08 162.7 19.272 162.636 19.496C162.572 19.688 162.412 19.864 162.156 20.024C162.028 19.832 161.804 19.704 161.484 19.64C161.164 19.544 160.828 19.496 160.476 19.496C159.42 19.496 158.412 19.8 157.452 20.408C156.492 20.984 155.612 21.736 154.812 22.664C154.012 23.592 153.308 24.6 152.7 25.688C152.124 26.776 151.676 27.832 151.356 28.856C151.036 29.848 150.876 30.712 150.876 31.448C150.876 32.056 151.004 32.552 151.26 32.936C151.516 33.288 151.9 33.464 152.412 33.464C153.276 33.464 154.3 32.968 155.484 31.976C156.7 30.952 157.932 29.496 159.18 27.608C160.46 25.688 161.612 23.4 162.636 20.744C163.34 18.92 164.076 17.064 164.844 15.176C165.612 13.256 166.38 11.416 167.148 9.656C167.916 7.896 168.668 6.328 169.404 4.952C170.172 3.576 170.892 2.488 171.564 1.688C172.268 0.855999 172.908 0.439999 173.484 0.439999C173.836 0.439999 174.14 0.583999 174.396 0.871999C174.684 1.128 174.828 1.464 174.828 1.88C174.828 2.424 174.556 3.304 174.012 4.52C173.5 5.704 172.828 7.128 171.996 8.792C171.196 10.456 170.316 12.264 169.356 14.216C168.428 16.136 167.548 18.12 166.716 20.168C165.916 22.184 165.244 24.184 164.7 26.168C164.188 28.12 163.932 29.96 163.932 31.688C163.932 32.456 163.996 32.984 164.124 33.272C164.284 33.528 164.54 33.656 164.892 33.656C165.596 33.656 166.38 33.384 167.244 32.84C168.108 32.296 168.988 31.496 169.884 30.44C170.78 29.352 171.596 28.056 172.332 26.552L173.244 27.32C172.54 29.08 171.644 30.632 170.556 31.976C169.468 33.32 168.3 34.36 167.052 35.096C165.804 35.864 164.572 36.248 163.356 36.248C162.044 36.248 161.132 35.832 160.62 35C160.108 34.168 159.852 33.192 159.852 32.072C159.852 31.56 159.884 31.048 159.948 30.536C160.044 29.992 160.14 29.464 160.236 28.952C159.244 30.392 158.188 31.688 157.068 32.84C155.98 33.96 154.908 34.84 153.852 35.48C152.796 36.12 151.788 36.44 150.828 36.44Z" fill="#D12CB8"/>
</svg>
